<svg width="65" height="65" viewBox="0 0 65 65" fill="none" xmlns="http://www.w3.org/2000/svg">
<g clip-path="url(#clip0_3_16)">
<path d="M32.5 65C41.1195 65 49.386 61.5759 55.481 55.481C61.5759 49.386 65 41.1195 65 32.5C65 23.8805 61.5759 15.614 55.481 9.51903C49.386 3.4241 41.1195 0 32.5 0C23.8805 0 15.614 3.4241 9.51903 9.51903C3.4241 15.614 0 23.8805 0 32.5C0 41.1195 3.4241 49.386 9.51903 55.481C15.614 61.5759 23.8805 65 32.5 65V65ZM18.2813 34.5312C17.7425 34.5312 17.2259 34.3172 16.8449 33.9363C16.464 33.5554 16.25 33.0387 16.25 32.5C16.25 31.9613 16.464 31.4446 16.8449 31.0637C17.2259 30.6828 17.7425 30.4687 18.2813 30.4687L41.8153 30.4687L33.0931 21.7506C32.9043 21.5618 32.7545 21.3376 32.6522 21.0908C32.55 20.8441 32.4974 20.5796 32.4974 20.3125C32.4974 20.0454 32.55 19.7809 32.6522 19.5342C32.7545 19.2874 32.9043 19.0632 33.0931 18.8744C33.282 18.6855 33.5062 18.5357 33.7529 18.4335C33.9997 18.3313 34.2642 18.2787 34.5313 18.2787C34.7983 18.2787 35.0628 18.3313 35.3096 18.4335C35.5563 18.5357 35.7805 18.6855 35.9694 18.8744L48.1569 31.0619C48.346 31.2506 48.4961 31.4747 48.5985 31.7215C48.7009 31.9683 48.7536 32.2328 48.7536 32.5C48.7536 32.7672 48.7009 33.0317 48.5985 33.2785C48.4961 33.5253 48.346 33.7494 48.1569 33.9381L35.9694 46.1256C35.588 46.507 35.0707 46.7213 34.5312 46.7213C33.9918 46.7213 33.4745 46.507 33.0931 46.1256C32.7117 45.7442 32.4974 45.2269 32.4974 44.6875C32.4974 44.1481 32.7117 43.6308 33.0931 43.2494L41.8153 34.5312L18.2813 34.5312Z" fill="white"/>
</g>
<defs>
<clipPath id="clip0_3_16">
<rect width="65" height="65" fill="white" transform="translate(65 65) rotate(-180)"/>
</clipPath>
</defs>
</svg>
