<svg width="123" height="105" viewBox="0 0 123 105" fill="none" xmlns="http://www.w3.org/2000/svg">
<path d="M21.7469 48.4045C17.6184 49.4434 14.0113 51.9541 11.6034 55.4649C9.19548 58.9757 8.15244 63.245 8.67026 67.4706C9.18807 71.6962 11.2311 75.5873 14.4155 78.4128C17.5999 81.2383 21.7064 82.8038 25.9636 82.815H73.9803C77.0622 82.8129 80.1088 82.1581 82.9195 80.8937C85.7301 79.6294 88.2412 77.7841 90.2873 75.4793C92.3334 73.1745 93.8681 70.4625 94.7906 67.5218C95.713 64.5812 96.0022 61.4785 95.6392 58.418C95.2761 55.3575 94.2689 52.4086 92.684 49.7653C91.0991 47.1221 88.9724 44.8445 86.4438 43.0825C83.9152 41.3204 81.0421 40.1139 78.0136 39.5423C74.9852 38.9706 71.8699 39.0468 68.873 39.7659L63.0674 41.3461" stroke="white" stroke-width="8" stroke-linecap="round" stroke-linejoin="round"/>
<path d="M68.873 39.7659C67.3811 33.858 63.6985 28.7384 58.5718 25.445C53.4452 22.1516 47.258 20.9307 41.2646 22.0299C35.2712 23.1291 29.9199 26.4661 26.2957 31.3645C22.6714 36.2629 21.0452 42.3561 21.7469 48.4089C21.7469 48.4089 22.4148 52.259 23.7811 54.4415" stroke="white" stroke-width="8" stroke-linecap="round" stroke-linejoin="round"/>
<g clip-path="url(#clip0_3_41)">
<path d="M120.788 48.6224L105.701 44.2325C105.072 41.7455 104.088 39.3617 102.781 37.1543C105.291 32.5547 107.805 27.9551 110.319 23.3567C111.007 22.0985 109.636 20.7215 108.375 21.4138L94.6331 28.9607C92.4047 27.6176 89.9896 26.612 87.4665 25.9768C85.972 20.8857 84.4788 15.7947 82.9844 10.6911C82.5889 9.33807 80.6435 9.33302 80.2456 10.6911C78.7637 15.7947 77.2781 20.8857 75.7937 25.9894C73.3177 26.6222 70.9454 27.6075 68.7497 28.9152C64.1185 26.3886 59.486 23.8494 54.8548 21.3228C53.5991 20.6369 52.2209 22.0088 52.9132 23.2696L60.5308 37.1379C59.2123 39.3555 58.2233 41.753 57.5949 44.2552L42.5808 48.6565C41.229 49.0532 41.2215 51.0012 42.5808 51.3953L57.5999 55.765C58.2462 58.3122 59.2631 60.7506 60.6179 63.0024C58.1191 67.5729 55.6204 72.1422 53.1241 76.714C52.4344 77.9723 53.805 79.3505 55.0658 78.6595C59.63 76.1519 64.1955 73.6443 68.761 71.1392C70.9788 72.4614 73.3773 73.4538 75.8809 74.0851C77.3451 79.0928 78.8143 84.0954 80.2809 89.0967C80.6789 90.4535 82.6256 90.456 83.0197 89.0967C84.4738 84.1005 85.9316 79.1029 87.3831 74.1054C89.9146 73.4719 92.3394 72.4704 94.58 71.1329L108.191 78.5711C108.319 78.6781 108.469 78.757 108.629 78.803C108.79 78.8489 108.959 78.8607 109.124 78.8376C109.468 78.8174 109.774 78.6595 110.011 78.427C110.274 78.1845 110.453 77.8573 110.475 77.4859C110.496 77.3189 110.483 77.1492 110.436 76.9877C110.388 76.8261 110.308 76.6761 110.199 76.5473C107.716 72.0209 105.226 67.4908 102.741 62.9619C104.067 60.7258 105.062 58.3093 105.694 55.7877C110.722 54.3122 115.758 52.8367 120.787 51.3637C122.142 50.9671 122.147 49.0178 120.789 48.6224" fill="#FBB041"/>
<path d="M81.4242 72.5112C93.9136 72.5112 104.038 62.3865 104.038 49.8971C104.038 37.4077 93.9136 27.2831 81.4242 27.2831C68.9348 27.2831 58.8102 37.4077 58.8102 49.8971C58.8102 62.3865 68.9348 72.5112 81.4242 72.5112Z" fill="#F9EC21"/>
</g>
<defs>
<clipPath id="clip0_3_41">
<rect width="80.8501" height="80.8501" fill="white" transform="translate(41.5638 9.67924)"/>
</clipPath>
</defs>
</svg>
