<svg width="215" height="184" viewBox="0 0 215 184" fill="none" xmlns="http://www.w3.org/2000/svg">
<path d="M38.1949 85.0146C30.9438 86.8392 24.6086 91.2489 20.3795 97.415C16.1503 103.581 14.3184 111.079 15.2279 118.501C16.1373 125.923 19.7256 132.757 25.3184 137.719C30.9113 142.682 38.1238 145.431 45.6009 145.451H129.934C135.347 145.447 140.698 144.297 145.634 142.077C150.571 139.856 154.981 136.615 158.575 132.567C162.168 128.519 164.864 123.756 166.484 118.591C168.104 113.426 168.612 107.977 167.974 102.602C167.337 97.2263 165.568 92.047 162.784 87.4046C160.001 82.7623 156.265 78.7621 151.824 75.6673C147.383 72.5726 142.337 70.4535 137.018 69.4495C131.699 68.4455 126.228 68.5793 120.964 69.8423L110.768 72.6176" stroke="white" stroke-width="20" stroke-linecap="round" stroke-linejoin="round"/>
<path d="M120.964 69.8423C118.344 59.466 111.876 50.4743 102.872 44.6899C93.8677 38.9056 83.0009 36.7613 72.4745 38.6919C61.948 40.6225 52.5494 46.4834 46.184 55.0866C39.8185 63.6897 36.9625 74.3914 38.1949 85.0223C38.1949 85.0223 39.3679 91.7843 41.7675 95.6176" stroke="white" stroke-width="20" stroke-linecap="round" stroke-linejoin="round"/>
<g clip-path="url(#clip0_3_27)">
<path d="M212.144 85.3973L185.646 77.6872C184.541 73.3191 182.814 69.1325 180.518 65.2555C184.927 57.1771 189.342 49.0986 193.758 41.0224C194.965 38.8125 192.557 36.394 190.343 37.6099L166.207 50.8647C162.294 48.5058 158.052 46.7398 153.62 45.624C150.996 36.6825 148.373 27.7409 145.748 18.7772C145.054 16.4009 141.637 16.392 140.938 18.7772C138.336 27.7409 135.726 36.6825 133.119 45.6462C128.77 46.7576 124.604 48.4882 120.748 50.7849C112.614 46.3474 104.477 41.8877 96.3435 37.4502C94.138 36.2454 91.7174 38.6549 92.9333 40.8693L106.312 65.2267C103.997 69.1215 102.26 73.3324 101.156 77.7271L74.7861 85.4573C72.412 86.1539 72.3987 89.5753 74.7861 90.2675L101.165 97.9422C102.3 102.416 104.086 106.699 106.465 110.653C102.077 118.681 97.688 126.706 93.3038 134.736C92.0923 136.946 94.4997 139.366 96.714 138.153C104.73 133.748 112.749 129.344 120.767 124.944C124.663 127.267 128.875 129.01 133.272 130.118C135.844 138.914 138.424 147.7 141 156.484C141.699 158.867 145.118 158.871 145.811 156.484C148.364 147.709 150.925 138.931 153.474 130.154C157.92 129.041 162.179 127.282 166.114 124.933L190.019 137.997C190.245 138.185 190.507 138.324 190.789 138.405C191.072 138.485 191.368 138.506 191.659 138.465C192.262 138.43 192.799 138.153 193.216 137.744C193.678 137.318 193.993 136.744 194.031 136.091C194.069 135.798 194.045 135.5 193.962 135.216C193.879 134.932 193.737 134.669 193.547 134.443C189.185 126.493 184.812 118.537 180.447 110.582C182.776 106.655 184.524 102.411 185.635 97.9821C194.465 95.3906 203.309 92.7991 212.142 90.212C214.523 89.5154 214.532 86.0918 212.147 85.3973" fill="#FBB041"/>
<path d="M143.008 127.354C164.944 127.354 182.726 109.572 182.726 87.6361C182.726 65.7006 164.944 47.9183 143.008 47.9183C121.073 47.9183 103.29 65.7006 103.29 87.6361C103.29 109.572 121.073 127.354 143.008 127.354Z" fill="#F9EC21"/>
</g>
<defs>
<clipPath id="clip0_3_27">
<rect width="142" height="142" fill="white" transform="translate(73 17)"/>
</clipPath>
</defs>
</svg>
